<mxfile host="Electron" modified="2024-07-17T08:05:37.018Z" agent="Mozilla/5.0 (Windows NT 10.0; Win64; x64) AppleWebKit/537.36 (KHTML, like Gecko) draw.io/24.6.4 Chrome/124.0.6367.207 Electron/30.0.6 Safari/537.36" etag="iAnEbrOKUNINGUbV9mjT" version="24.6.4" type="device">
  <diagram id="C5RBs43oDa-KdzZeNtuy" name="Page-1">
    <mxGraphModel dx="1290" dy="621" grid="1" gridSize="10" guides="1" tooltips="1" connect="1" arrows="1" fold="1" page="1" pageScale="1" pageWidth="827" pageHeight="1169" math="0" shadow="0">
      <root>
        <mxCell id="WIyWlLk6GJQsqaUBKTNV-0" />
        <mxCell id="WIyWlLk6GJQsqaUBKTNV-1" parent="WIyWlLk6GJQsqaUBKTNV-0" />
        <mxCell id="eJGPHQveTNaPy0s2nLHc-1" style="edgeStyle=orthogonalEdgeStyle;rounded=0;orthogonalLoop=1;jettySize=auto;html=1;entryX=0.5;entryY=0;entryDx=0;entryDy=0;" parent="WIyWlLk6GJQsqaUBKTNV-1" source="eJGPHQveTNaPy0s2nLHc-2" target="eJGPHQveTNaPy0s2nLHc-34" edge="1">
          <mxGeometry relative="1" as="geometry" />
        </mxCell>
        <mxCell id="eJGPHQveTNaPy0s2nLHc-2" value="THREAT ASSESSMENT" style="swimlane;whiteSpace=wrap;html=1;" parent="WIyWlLk6GJQsqaUBKTNV-1" vertex="1">
          <mxGeometry x="42" y="140" width="958" height="350" as="geometry">
            <mxRectangle x="42" y="140" width="210" height="30" as="alternateBounds" />
          </mxGeometry>
        </mxCell>
        <mxCell id="eJGPHQveTNaPy0s2nLHc-3" value="&lt;font face=&quot;Calibri&quot; color=&quot;#3d64ac&quot;&gt;&lt;span style=&quot;font-size: 11.29px;&quot;&gt;Search for &quot;Readme&quot; on user desktops&lt;/span&gt;&lt;/font&gt;" style="shape=process;whiteSpace=wrap;html=1;backgroundOutline=1;" parent="eJGPHQveTNaPy0s2nLHc-2" vertex="1">
          <mxGeometry x="285" y="170" width="120" height="60" as="geometry" />
        </mxCell>
        <mxCell id="eJGPHQveTNaPy0s2nLHc-4" style="edgeStyle=orthogonalEdgeStyle;rounded=0;orthogonalLoop=1;jettySize=auto;html=1;entryX=0;entryY=0.5;entryDx=0;entryDy=0;" parent="eJGPHQveTNaPy0s2nLHc-2" source="eJGPHQveTNaPy0s2nLHc-5" target="eJGPHQveTNaPy0s2nLHc-24" edge="1">
          <mxGeometry relative="1" as="geometry" />
        </mxCell>
        <mxCell id="eJGPHQveTNaPy0s2nLHc-5" value="&lt;p style=&quot;margin: 0px; vertical-align: middle; direction: ltr;&quot;&gt;&lt;font face=&quot;Calibri&quot; color=&quot;#feffff&quot;&gt;&lt;span style=&quot;font-size: 11.29px;&quot;&gt;- Check if the workstation is reachable&lt;/span&gt;&lt;/font&gt;&lt;/p&gt;&lt;p style=&quot;margin: 0px; vertical-align: middle; direction: ltr;&quot;&gt;&lt;font face=&quot;Calibri&quot; color=&quot;#feffff&quot;&gt;&lt;span style=&quot;font-size: 11.29px;&quot;&gt;- Verify agent is up-to-date&lt;/span&gt;&lt;/font&gt;&lt;/p&gt;&lt;p style=&quot;margin: 0px; vertical-align: middle; direction: ltr;&quot;&gt;&lt;/p&gt;&lt;p style=&quot;margin: 0px; vertical-align: middle; direction: ltr;&quot;&gt;&lt;font face=&quot;Calibri&quot; color=&quot;#feffff&quot;&gt;&lt;span style=&quot;font-size: 11.29px;&quot;&gt;- Ensure database is up-to-date&lt;/span&gt;&lt;/font&gt;&lt;/p&gt;" style="shape=document;whiteSpace=wrap;html=1;boundedLbl=1;" parent="eJGPHQveTNaPy0s2nLHc-2" vertex="1">
          <mxGeometry x="10" y="30" width="178" height="80" as="geometry" />
        </mxCell>
        <mxCell id="eJGPHQveTNaPy0s2nLHc-6" value="&lt;span style=&quot;color: rgb(61, 100, 172); font-family: Calibri; font-size: 11.29px;&quot;&gt;Extraction of evidence&lt;/span&gt;" style="shape=process;whiteSpace=wrap;html=1;backgroundOutline=1;" parent="eJGPHQveTNaPy0s2nLHc-2" vertex="1">
          <mxGeometry x="140" y="170" width="120" height="60" as="geometry" />
        </mxCell>
        <mxCell id="eJGPHQveTNaPy0s2nLHc-7" value="&lt;font face=&quot;Calibri&quot; color=&quot;#3d64ac&quot;&gt;&lt;span style=&quot;font-size: 11.29px;&quot;&gt;List the users on the workstation&lt;/span&gt;&lt;/font&gt;" style="shape=process;whiteSpace=wrap;html=1;backgroundOutline=1;" parent="eJGPHQveTNaPy0s2nLHc-2" vertex="1">
          <mxGeometry y="170" width="120" height="60" as="geometry" />
        </mxCell>
        <mxCell id="eJGPHQveTNaPy0s2nLHc-8" value="" style="edgeStyle=orthogonalEdgeStyle;rounded=0;orthogonalLoop=1;jettySize=auto;html=1;" parent="eJGPHQveTNaPy0s2nLHc-2" source="eJGPHQveTNaPy0s2nLHc-9" target="eJGPHQveTNaPy0s2nLHc-7" edge="1">
          <mxGeometry relative="1" as="geometry" />
        </mxCell>
        <mxCell id="eJGPHQveTNaPy0s2nLHc-9" value="&lt;div&gt;- Currently logged in users&lt;/div&gt;&lt;div&gt;- Users in /users or /home&lt;/div&gt;" style="shape=document;whiteSpace=wrap;html=1;boundedLbl=1;" parent="eJGPHQveTNaPy0s2nLHc-2" vertex="1">
          <mxGeometry x="10" y="270" width="120" height="80" as="geometry" />
        </mxCell>
        <mxCell id="eJGPHQveTNaPy0s2nLHc-10" value="&lt;span style=&quot;color: rgb(61, 100, 172); font-family: Calibri; font-size: 11.29px;&quot;&gt;Extraction des traces&lt;/span&gt;" style="shape=process;whiteSpace=wrap;html=1;backgroundOutline=1;" parent="eJGPHQveTNaPy0s2nLHc-2" vertex="1">
          <mxGeometry x="430" y="170" width="120" height="60" as="geometry" />
        </mxCell>
        <mxCell id="eJGPHQveTNaPy0s2nLHc-11" value="&lt;span style=&quot;color: rgb(61, 100, 172); font-family: Calibri; font-size: 11.29px;&quot;&gt;Lister les connexions réseaux en cours&lt;/span&gt;" style="shape=process;whiteSpace=wrap;html=1;backgroundOutline=1;" parent="eJGPHQveTNaPy0s2nLHc-2" vertex="1">
          <mxGeometry x="580" y="170" width="120" height="60" as="geometry" />
        </mxCell>
        <mxCell id="eJGPHQveTNaPy0s2nLHc-12" value="&lt;font face=&quot;Calibri&quot; color=&quot;#3d64ac&quot;&gt;&lt;span style=&quot;font-size: 11.29px;&quot;&gt;Monitor current alerts across the network&lt;/span&gt;&lt;/font&gt;" style="shape=process;whiteSpace=wrap;html=1;backgroundOutline=1;" parent="eJGPHQveTNaPy0s2nLHc-2" vertex="1">
          <mxGeometry x="430" y="40" width="120" height="60" as="geometry" />
        </mxCell>
        <mxCell id="eJGPHQveTNaPy0s2nLHc-13" value="&lt;font face=&quot;Calibri&quot; color=&quot;#3d64ac&quot;&gt;&lt;span style=&quot;font-size: 11.29px;&quot;&gt;Identify vulnerabilities present on the workstation&lt;/span&gt;&lt;/font&gt;" style="shape=process;whiteSpace=wrap;html=1;backgroundOutline=1;" parent="eJGPHQveTNaPy0s2nLHc-2" vertex="1">
          <mxGeometry x="808" y="150" width="120" height="60" as="geometry" />
        </mxCell>
        <mxCell id="eJGPHQveTNaPy0s2nLHc-14" value="" style="edgeStyle=orthogonalEdgeStyle;rounded=0;orthogonalLoop=1;jettySize=auto;html=1;" parent="eJGPHQveTNaPy0s2nLHc-2" source="eJGPHQveTNaPy0s2nLHc-15" target="eJGPHQveTNaPy0s2nLHc-10" edge="1">
          <mxGeometry relative="1" as="geometry" />
        </mxCell>
        <mxCell id="eJGPHQveTNaPy0s2nLHc-15" value="- Activité internet&lt;br&gt;- Processus et fichiers créés, modifiés, etc.&lt;br&gt;- Compte local créé," style="shape=document;whiteSpace=wrap;html=1;boundedLbl=1;" parent="eJGPHQveTNaPy0s2nLHc-2" vertex="1">
          <mxGeometry x="420" y="270" width="140" height="80" as="geometry" />
        </mxCell>
        <mxCell id="eJGPHQveTNaPy0s2nLHc-16" value="" style="edgeStyle=orthogonalEdgeStyle;rounded=0;orthogonalLoop=1;jettySize=auto;html=1;" parent="eJGPHQveTNaPy0s2nLHc-2" source="eJGPHQveTNaPy0s2nLHc-17" target="eJGPHQveTNaPy0s2nLHc-6" edge="1">
          <mxGeometry relative="1" as="geometry" />
        </mxCell>
        <mxCell id="eJGPHQveTNaPy0s2nLHc-17" value="- RAM&lt;br&gt;- logs&lt;br&gt;-Prefetch&lt;br&gt;-etc" style="shape=document;whiteSpace=wrap;html=1;boundedLbl=1;" parent="eJGPHQveTNaPy0s2nLHc-2" vertex="1">
          <mxGeometry x="140" y="270" width="120" height="80" as="geometry" />
        </mxCell>
        <mxCell id="eJGPHQveTNaPy0s2nLHc-18" style="edgeStyle=orthogonalEdgeStyle;rounded=0;orthogonalLoop=1;jettySize=auto;html=1;entryX=0;entryY=0.5;entryDx=0;entryDy=0;" parent="eJGPHQveTNaPy0s2nLHc-2" source="eJGPHQveTNaPy0s2nLHc-24" target="eJGPHQveTNaPy0s2nLHc-12" edge="1">
          <mxGeometry relative="1" as="geometry" />
        </mxCell>
        <mxCell id="eJGPHQveTNaPy0s2nLHc-19" style="edgeStyle=orthogonalEdgeStyle;rounded=0;orthogonalLoop=1;jettySize=auto;html=1;entryX=0.5;entryY=0;entryDx=0;entryDy=0;" parent="eJGPHQveTNaPy0s2nLHc-2" source="eJGPHQveTNaPy0s2nLHc-24" target="eJGPHQveTNaPy0s2nLHc-7" edge="1">
          <mxGeometry relative="1" as="geometry">
            <Array as="points">
              <mxPoint x="320" y="120" />
              <mxPoint x="60" y="120" />
            </Array>
          </mxGeometry>
        </mxCell>
        <mxCell id="eJGPHQveTNaPy0s2nLHc-20" style="edgeStyle=orthogonalEdgeStyle;rounded=0;orthogonalLoop=1;jettySize=auto;html=1;entryX=0.5;entryY=0;entryDx=0;entryDy=0;" parent="eJGPHQveTNaPy0s2nLHc-2" source="eJGPHQveTNaPy0s2nLHc-24" target="eJGPHQveTNaPy0s2nLHc-6" edge="1">
          <mxGeometry relative="1" as="geometry" />
        </mxCell>
        <mxCell id="eJGPHQveTNaPy0s2nLHc-21" style="edgeStyle=orthogonalEdgeStyle;rounded=0;orthogonalLoop=1;jettySize=auto;html=1;entryX=0.5;entryY=0;entryDx=0;entryDy=0;" parent="eJGPHQveTNaPy0s2nLHc-2" source="eJGPHQveTNaPy0s2nLHc-24" target="eJGPHQveTNaPy0s2nLHc-3" edge="1">
          <mxGeometry relative="1" as="geometry" />
        </mxCell>
        <mxCell id="eJGPHQveTNaPy0s2nLHc-22" style="edgeStyle=orthogonalEdgeStyle;rounded=0;orthogonalLoop=1;jettySize=auto;html=1;entryX=0.5;entryY=0;entryDx=0;entryDy=0;" parent="eJGPHQveTNaPy0s2nLHc-2" source="eJGPHQveTNaPy0s2nLHc-24" target="eJGPHQveTNaPy0s2nLHc-10" edge="1">
          <mxGeometry relative="1" as="geometry">
            <Array as="points">
              <mxPoint x="320" y="120" />
              <mxPoint x="490" y="120" />
            </Array>
          </mxGeometry>
        </mxCell>
        <mxCell id="eJGPHQveTNaPy0s2nLHc-23" style="edgeStyle=orthogonalEdgeStyle;rounded=0;orthogonalLoop=1;jettySize=auto;html=1;entryX=0.5;entryY=0;entryDx=0;entryDy=0;" parent="eJGPHQveTNaPy0s2nLHc-2" source="eJGPHQveTNaPy0s2nLHc-24" target="eJGPHQveTNaPy0s2nLHc-11" edge="1">
          <mxGeometry relative="1" as="geometry">
            <Array as="points">
              <mxPoint x="320" y="120" />
              <mxPoint x="640" y="120" />
            </Array>
          </mxGeometry>
        </mxCell>
        <mxCell id="eJGPHQveTNaPy0s2nLHc-24" value="Isolate the workstation" style="shape=process;whiteSpace=wrap;html=1;backgroundOutline=1;" parent="eJGPHQveTNaPy0s2nLHc-2" vertex="1">
          <mxGeometry x="260" y="40" width="120" height="60" as="geometry" />
        </mxCell>
        <mxCell id="eJGPHQveTNaPy0s2nLHc-25" style="edgeStyle=orthogonalEdgeStyle;rounded=0;orthogonalLoop=1;jettySize=auto;html=1;entryX=0.5;entryY=0;entryDx=0;entryDy=0;" parent="eJGPHQveTNaPy0s2nLHc-2" source="eJGPHQveTNaPy0s2nLHc-26" target="eJGPHQveTNaPy0s2nLHc-13" edge="1">
          <mxGeometry relative="1" as="geometry" />
        </mxCell>
        <mxCell id="eJGPHQveTNaPy0s2nLHc-26" value="&lt;font face=&quot;Calibri&quot; color=&quot;#3d64ac&quot;&gt;&lt;span style=&quot;font-size: 11.29px;&quot;&gt;Identify the role of the workstation&lt;/span&gt;&lt;/font&gt;" style="shape=process;whiteSpace=wrap;html=1;backgroundOutline=1;" parent="eJGPHQveTNaPy0s2nLHc-2" vertex="1">
          <mxGeometry x="808" y="40" width="120" height="60" as="geometry" />
        </mxCell>
        <mxCell id="eJGPHQveTNaPy0s2nLHc-27" style="edgeStyle=orthogonalEdgeStyle;rounded=0;orthogonalLoop=1;jettySize=auto;html=1;entryX=0.5;entryY=1;entryDx=0;entryDy=0;" parent="eJGPHQveTNaPy0s2nLHc-2" source="eJGPHQveTNaPy0s2nLHc-28" target="eJGPHQveTNaPy0s2nLHc-13" edge="1">
          <mxGeometry relative="1" as="geometry" />
        </mxCell>
        <mxCell id="eJGPHQveTNaPy0s2nLHc-28" value="These vulnerabilities could be exploited in the context of ransomware and guide the investigation." style="shape=document;whiteSpace=wrap;html=1;boundedLbl=1;" parent="eJGPHQveTNaPy0s2nLHc-2" vertex="1">
          <mxGeometry x="758" y="250" width="170" height="80" as="geometry" />
        </mxCell>
        <mxCell id="eJGPHQveTNaPy0s2nLHc-29" style="edgeStyle=orthogonalEdgeStyle;rounded=0;orthogonalLoop=1;jettySize=auto;html=1;entryX=0;entryY=0.5;entryDx=0;entryDy=0;" parent="eJGPHQveTNaPy0s2nLHc-2" source="eJGPHQveTNaPy0s2nLHc-30" target="eJGPHQveTNaPy0s2nLHc-26" edge="1">
          <mxGeometry relative="1" as="geometry" />
        </mxCell>
        <mxCell id="eJGPHQveTNaPy0s2nLHc-30" value="&lt;p style=&quot;margin: 0px; vertical-align: middle; direction: ltr;&quot;&gt;&lt;font face=&quot;Calibri&quot; color=&quot;#feffff&quot;&gt;&lt;span style=&quot;font-size: 11.29px;&quot;&gt;- Web service?&lt;/span&gt;&lt;/font&gt;&lt;/p&gt;&lt;p style=&quot;margin: 0px; vertical-align: middle; direction: ltr;&quot;&gt;&lt;font face=&quot;Calibri&quot; color=&quot;#feffff&quot;&gt;&lt;span style=&quot;font-size: 11.29px;&quot;&gt;- Workstation?&lt;/span&gt;&lt;/font&gt;&lt;/p&gt;&lt;p style=&quot;margin: 0px; vertical-align: middle; direction: ltr;&quot;&gt;&lt;font face=&quot;Calibri&quot; color=&quot;#feffff&quot;&gt;&lt;span style=&quot;font-size: 11.29px;&quot;&gt;- Active Directory (AD)?&lt;/span&gt;&lt;/font&gt;&lt;/p&gt;&lt;p style=&quot;margin: 0px; vertical-align: middle; direction: ltr;&quot;&gt;&lt;font face=&quot;Calibri&quot; color=&quot;#feffff&quot;&gt;&lt;span style=&quot;font-size: 11.29px;&quot;&gt;etc.&lt;/span&gt;&lt;/font&gt;&lt;/p&gt;" style="shape=document;whiteSpace=wrap;html=1;boundedLbl=1;" parent="eJGPHQveTNaPy0s2nLHc-2" vertex="1">
          <mxGeometry x="598" y="30" width="178" height="80" as="geometry" />
        </mxCell>
        <mxCell id="eJGPHQveTNaPy0s2nLHc-31" value="" style="edgeStyle=orthogonalEdgeStyle;rounded=0;orthogonalLoop=1;jettySize=auto;html=1;" parent="eJGPHQveTNaPy0s2nLHc-2" source="eJGPHQveTNaPy0s2nLHc-32" target="eJGPHQveTNaPy0s2nLHc-3" edge="1">
          <mxGeometry relative="1" as="geometry" />
        </mxCell>
        <mxCell id="eJGPHQveTNaPy0s2nLHc-32" value="&lt;p style=&quot;margin: 0px; vertical-align: middle; direction: ltr;&quot;&gt;&lt;font face=&quot;Calibri&quot; color=&quot;#feffff&quot;&gt;&lt;span style=&quot;font-size: 11.29px;&quot;&gt;Identify the ransomware&lt;/span&gt;&lt;/font&gt;&lt;br&gt;&lt;/p&gt;" style="shape=document;whiteSpace=wrap;html=1;boundedLbl=1;" parent="eJGPHQveTNaPy0s2nLHc-2" vertex="1">
          <mxGeometry x="286.5" y="270" width="117" height="80" as="geometry" />
        </mxCell>
        <mxCell id="eJGPHQveTNaPy0s2nLHc-33" style="edgeStyle=orthogonalEdgeStyle;rounded=0;orthogonalLoop=1;jettySize=auto;html=1;entryX=0.5;entryY=0;entryDx=0;entryDy=0;" parent="WIyWlLk6GJQsqaUBKTNV-1" source="eJGPHQveTNaPy0s2nLHc-34" target="eJGPHQveTNaPy0s2nLHc-38" edge="1">
          <mxGeometry relative="1" as="geometry" />
        </mxCell>
        <mxCell id="eJGPHQveTNaPy0s2nLHc-34" value="DOUBT RESOLUTION" style="swimlane;whiteSpace=wrap;html=1;startSize=23;" parent="WIyWlLk6GJQsqaUBKTNV-1" vertex="1">
          <mxGeometry x="40" y="530" width="748" height="180" as="geometry" />
        </mxCell>
        <mxCell id="eJGPHQveTNaPy0s2nLHc-35" value="Known issue ?" style="rhombus;whiteSpace=wrap;html=1;" parent="eJGPHQveTNaPy0s2nLHc-34" vertex="1">
          <mxGeometry x="58" y="60" width="92" height="90" as="geometry" />
        </mxCell>
        <mxCell id="eJGPHQveTNaPy0s2nLHc-36" value="Previous cases ?" style="rhombus;whiteSpace=wrap;html=1;" parent="eJGPHQveTNaPy0s2nLHc-34" vertex="1">
          <mxGeometry x="214" y="60" width="92" height="90" as="geometry" />
        </mxCell>
        <mxCell id="eJGPHQveTNaPy0s2nLHc-37" value="Exercice ?" style="rhombus;whiteSpace=wrap;html=1;" parent="eJGPHQveTNaPy0s2nLHc-34" vertex="1">
          <mxGeometry x="374" y="60" width="92" height="90" as="geometry" />
        </mxCell>
        <mxCell id="eJGPHQveTNaPy0s2nLHc-38" value="ACTIONS / RECOMMENDATIONS" style="swimlane;whiteSpace=wrap;html=1;startSize=23;" parent="WIyWlLk6GJQsqaUBKTNV-1" vertex="1">
          <mxGeometry x="40" y="760" width="1190" height="350" as="geometry" />
        </mxCell>
        <mxCell id="eJGPHQveTNaPy0s2nLHc-39" value="&lt;font face=&quot;Calibri&quot; color=&quot;#3d64ac&quot;&gt;&lt;span style=&quot;font-size: 11.29px;&quot;&gt;Maintain isolation of the workstation&lt;/span&gt;&lt;/font&gt;" style="shape=process;whiteSpace=wrap;html=1;backgroundOutline=1;" parent="eJGPHQveTNaPy0s2nLHc-38" vertex="1">
          <mxGeometry x="34" y="150" width="120" height="60" as="geometry" />
        </mxCell>
        <mxCell id="eJGPHQveTNaPy0s2nLHc-40" value="&lt;font face=&quot;Calibri&quot; color=&quot;#3d64ac&quot;&gt;&lt;span style=&quot;font-size: 11.29px;&quot;&gt;Disable the accounts present on the workstation&lt;/span&gt;&lt;/font&gt;" style="shape=process;whiteSpace=wrap;html=1;backgroundOutline=1;" parent="eJGPHQveTNaPy0s2nLHc-38" vertex="1">
          <mxGeometry x="220" y="150" width="120" height="60" as="geometry" />
        </mxCell>
        <mxCell id="eJGPHQveTNaPy0s2nLHc-41" value="&lt;font face=&quot;Calibri&quot; color=&quot;#3d64ac&quot;&gt;&lt;span style=&quot;font-size: 11.29px;&quot;&gt;Analysis of network traces&lt;/span&gt;&lt;/font&gt;" style="shape=process;whiteSpace=wrap;html=1;backgroundOutline=1;" parent="eJGPHQveTNaPy0s2nLHc-38" vertex="1">
          <mxGeometry x="410" y="150" width="120" height="60" as="geometry" />
        </mxCell>
        <mxCell id="eJGPHQveTNaPy0s2nLHc-42" value="&lt;font face=&quot;Calibri&quot; color=&quot;#3d64ac&quot;&gt;&lt;span style=&quot;font-size: 11.29px;&quot;&gt;Notify the related departments&lt;/span&gt;&lt;/font&gt;" style="shape=process;whiteSpace=wrap;html=1;backgroundOutline=1;" parent="eJGPHQveTNaPy0s2nLHc-38" vertex="1">
          <mxGeometry x="600" y="150" width="120" height="60" as="geometry" />
        </mxCell>
        <mxCell id="eJGPHQveTNaPy0s2nLHc-43" value="" style="edgeStyle=orthogonalEdgeStyle;rounded=0;orthogonalLoop=1;jettySize=auto;html=1;" parent="eJGPHQveTNaPy0s2nLHc-38" source="eJGPHQveTNaPy0s2nLHc-44" target="eJGPHQveTNaPy0s2nLHc-39" edge="1">
          <mxGeometry relative="1" as="geometry" />
        </mxCell>
        <mxCell id="eJGPHQveTNaPy0s2nLHc-44" value="while conducting a comprehensive trace analysis" style="shape=document;whiteSpace=wrap;html=1;boundedLbl=1;" parent="eJGPHQveTNaPy0s2nLHc-38" vertex="1">
          <mxGeometry x="34" y="250" width="120" height="80" as="geometry" />
        </mxCell>
        <mxCell id="eJGPHQveTNaPy0s2nLHc-45" value="" style="edgeStyle=orthogonalEdgeStyle;rounded=0;orthogonalLoop=1;jettySize=auto;html=1;" parent="eJGPHQveTNaPy0s2nLHc-38" source="eJGPHQveTNaPy0s2nLHc-46" target="eJGPHQveTNaPy0s2nLHc-40" edge="1">
          <mxGeometry relative="1" as="geometry" />
        </mxCell>
        <mxCell id="eJGPHQveTNaPy0s2nLHc-46" value="To prevent any lateral movement of the attack" style="shape=document;whiteSpace=wrap;html=1;boundedLbl=1;" parent="eJGPHQveTNaPy0s2nLHc-38" vertex="1">
          <mxGeometry x="220" y="250" width="120" height="80" as="geometry" />
        </mxCell>
        <mxCell id="eJGPHQveTNaPy0s2nLHc-47" style="edgeStyle=orthogonalEdgeStyle;rounded=0;orthogonalLoop=1;jettySize=auto;html=1;entryX=0.5;entryY=0;entryDx=0;entryDy=0;exitX=0.5;exitY=1;exitDx=0;exitDy=0;" parent="eJGPHQveTNaPy0s2nLHc-38" source="eJGPHQveTNaPy0s2nLHc-52" target="eJGPHQveTNaPy0s2nLHc-39" edge="1">
          <mxGeometry relative="1" as="geometry" />
        </mxCell>
        <mxCell id="eJGPHQveTNaPy0s2nLHc-48" style="edgeStyle=orthogonalEdgeStyle;rounded=0;orthogonalLoop=1;jettySize=auto;html=1;entryX=0.5;entryY=0;entryDx=0;entryDy=0;exitX=0.5;exitY=1;exitDx=0;exitDy=0;" parent="eJGPHQveTNaPy0s2nLHc-38" source="eJGPHQveTNaPy0s2nLHc-52" target="eJGPHQveTNaPy0s2nLHc-40" edge="1">
          <mxGeometry relative="1" as="geometry" />
        </mxCell>
        <mxCell id="eJGPHQveTNaPy0s2nLHc-49" style="edgeStyle=orthogonalEdgeStyle;rounded=0;orthogonalLoop=1;jettySize=auto;html=1;entryX=0.5;entryY=0;entryDx=0;entryDy=0;" parent="eJGPHQveTNaPy0s2nLHc-38" source="eJGPHQveTNaPy0s2nLHc-52" target="eJGPHQveTNaPy0s2nLHc-41" edge="1">
          <mxGeometry relative="1" as="geometry" />
        </mxCell>
        <mxCell id="eJGPHQveTNaPy0s2nLHc-50" style="edgeStyle=orthogonalEdgeStyle;rounded=0;orthogonalLoop=1;jettySize=auto;html=1;entryX=0.5;entryY=0;entryDx=0;entryDy=0;exitX=0.5;exitY=1;exitDx=0;exitDy=0;" parent="eJGPHQveTNaPy0s2nLHc-38" source="eJGPHQveTNaPy0s2nLHc-52" target="eJGPHQveTNaPy0s2nLHc-42" edge="1">
          <mxGeometry relative="1" as="geometry" />
        </mxCell>
        <mxCell id="eJGPHQveTNaPy0s2nLHc-51" style="edgeStyle=orthogonalEdgeStyle;rounded=0;orthogonalLoop=1;jettySize=auto;html=1;entryX=0.5;entryY=0;entryDx=0;entryDy=0;exitX=0.5;exitY=1;exitDx=0;exitDy=0;" parent="eJGPHQveTNaPy0s2nLHc-38" source="eJGPHQveTNaPy0s2nLHc-52" target="eJGPHQveTNaPy0s2nLHc-57" edge="1">
          <mxGeometry relative="1" as="geometry" />
        </mxCell>
        <mxCell id="eJGPHQveTNaPy0s2nLHc-52" value="&lt;font face=&quot;Calibri&quot; color=&quot;#3d64ac&quot;&gt;&lt;span style=&quot;font-size: 11.29px;&quot;&gt;Convene the crisis management team&lt;/span&gt;&lt;/font&gt;" style="shape=process;whiteSpace=wrap;html=1;backgroundOutline=1;" parent="eJGPHQveTNaPy0s2nLHc-38" vertex="1">
          <mxGeometry x="410" y="40" width="120" height="60" as="geometry" />
        </mxCell>
        <mxCell id="eJGPHQveTNaPy0s2nLHc-53" value="" style="edgeStyle=orthogonalEdgeStyle;rounded=0;orthogonalLoop=1;jettySize=auto;html=1;" parent="eJGPHQveTNaPy0s2nLHc-38" source="eJGPHQveTNaPy0s2nLHc-54" target="eJGPHQveTNaPy0s2nLHc-41" edge="1">
          <mxGeometry relative="1" as="geometry" />
        </mxCell>
        <mxCell id="eJGPHQveTNaPy0s2nLHc-54" value="&lt;div&gt;- Exporting traces via perimeter firewalls&lt;/div&gt;&lt;div&gt;- Analysis&lt;/div&gt;" style="shape=document;whiteSpace=wrap;html=1;boundedLbl=1;" parent="eJGPHQveTNaPy0s2nLHc-38" vertex="1">
          <mxGeometry x="410" y="240" width="120" height="80" as="geometry" />
        </mxCell>
        <mxCell id="eJGPHQveTNaPy0s2nLHc-55" value="" style="edgeStyle=orthogonalEdgeStyle;rounded=0;orthogonalLoop=1;jettySize=auto;html=1;" parent="eJGPHQveTNaPy0s2nLHc-38" source="eJGPHQveTNaPy0s2nLHc-56" target="eJGPHQveTNaPy0s2nLHc-42" edge="1">
          <mxGeometry relative="1" as="geometry" />
        </mxCell>
        <mxCell id="eJGPHQveTNaPy0s2nLHc-56" value="&lt;div&gt;- Declaration to authorities?&lt;/div&gt;&lt;div&gt;- Call third-party providers?&lt;/div&gt;&lt;div&gt;- Internal/public communications?&lt;/div&gt;" style="shape=document;whiteSpace=wrap;html=1;boundedLbl=1;" parent="eJGPHQveTNaPy0s2nLHc-38" vertex="1">
          <mxGeometry x="560" y="240" width="200" height="110" as="geometry" />
        </mxCell>
        <mxCell id="eJGPHQveTNaPy0s2nLHc-57" value="&lt;font face=&quot;Calibri&quot; color=&quot;#3d64ac&quot;&gt;&lt;span style=&quot;font-size: 11.29px;&quot;&gt;Prepare the backups&lt;/span&gt;&lt;/font&gt;" style="shape=process;whiteSpace=wrap;html=1;backgroundOutline=1;" parent="eJGPHQveTNaPy0s2nLHc-38" vertex="1">
          <mxGeometry x="815" y="150" width="120" height="60" as="geometry" />
        </mxCell>
        <mxCell id="eJGPHQveTNaPy0s2nLHc-58" style="edgeStyle=orthogonalEdgeStyle;rounded=0;orthogonalLoop=1;jettySize=auto;html=1;entryX=0.5;entryY=1;entryDx=0;entryDy=0;" parent="eJGPHQveTNaPy0s2nLHc-38" source="eJGPHQveTNaPy0s2nLHc-59" target="eJGPHQveTNaPy0s2nLHc-57" edge="1">
          <mxGeometry relative="1" as="geometry" />
        </mxCell>
        <mxCell id="eJGPHQveTNaPy0s2nLHc-59" value="&lt;div&gt;- Identify their locations&lt;/div&gt;&lt;div&gt;- Verify availability&lt;/div&gt;&lt;div&gt;- Check timestamps&lt;/div&gt;&lt;div&gt;- Prepare for restoration in a private network&lt;/div&gt;" style="shape=document;whiteSpace=wrap;html=1;boundedLbl=1;" parent="eJGPHQveTNaPy0s2nLHc-38" vertex="1">
          <mxGeometry x="770" y="240" width="210" height="100" as="geometry" />
        </mxCell>
        <mxCell id="eJGPHQveTNaPy0s2nLHc-60" value="&lt;font face=&quot;Calibri&quot; color=&quot;#3d64ac&quot;&gt;&lt;span style=&quot;font-size: 11.29px;&quot;&gt;Check decryption tool&lt;/span&gt;&lt;/font&gt;" style="shape=process;whiteSpace=wrap;html=1;backgroundOutline=1;" parent="eJGPHQveTNaPy0s2nLHc-38" vertex="1">
          <mxGeometry x="1030" y="150" width="120" height="60" as="geometry" />
        </mxCell>
        <mxCell id="eJGPHQveTNaPy0s2nLHc-61" style="edgeStyle=orthogonalEdgeStyle;rounded=0;orthogonalLoop=1;jettySize=auto;html=1;entryX=0.5;entryY=1;entryDx=0;entryDy=0;" parent="eJGPHQveTNaPy0s2nLHc-38" source="eJGPHQveTNaPy0s2nLHc-62" target="eJGPHQveTNaPy0s2nLHc-60" edge="1">
          <mxGeometry relative="1" as="geometry" />
        </mxCell>
        <mxCell id="eJGPHQveTNaPy0s2nLHc-62" value="nomoreransom.org" style="shape=document;whiteSpace=wrap;html=1;boundedLbl=1;" parent="eJGPHQveTNaPy0s2nLHc-38" vertex="1">
          <mxGeometry x="1030" y="240" width="120" height="80" as="geometry" />
        </mxCell>
        <mxCell id="eJGPHQveTNaPy0s2nLHc-63" value="&lt;span style=&quot;font-size: 11.29px; font-family: Calibri; color: rgb(61, 100, 172);&quot;&gt;Analyze frist IoC founds&lt;br&gt;&lt;/span&gt;" style="shape=process;whiteSpace=wrap;html=1;backgroundOutline=1;" parent="eJGPHQveTNaPy0s2nLHc-38" vertex="1">
          <mxGeometry x="1030" y="40" width="120" height="60" as="geometry" />
        </mxCell>
        <mxCell id="eJGPHQveTNaPy0s2nLHc-64" value="Playbook réalisé par Augmented Security Force - licence&amp;nbsp;CC0 1.0 UNIVERSAL" style="text;html=1;align=center;verticalAlign=middle;whiteSpace=wrap;rounded=0;" parent="WIyWlLk6GJQsqaUBKTNV-1" vertex="1">
          <mxGeometry x="42" y="500" width="350" height="30" as="geometry" />
        </mxCell>
        <mxCell id="eJGPHQveTNaPy0s2nLHc-65" value="Playbook réalisé par Augmented Security Force - licence&amp;nbsp;CC0 1.0 UNIVERSAL" style="text;html=1;align=center;verticalAlign=middle;whiteSpace=wrap;rounded=0;" parent="WIyWlLk6GJQsqaUBKTNV-1" vertex="1">
          <mxGeometry x="40" y="720" width="350" height="30" as="geometry" />
        </mxCell>
        <mxCell id="eJGPHQveTNaPy0s2nLHc-66" value="&lt;h1 style=&quot;margin-top: 0px;&quot;&gt;Ransomware&lt;/h1&gt;&lt;p style=&quot;text-align: justify;&quot;&gt;&lt;font style=&quot;font-size: 11px;&quot;&gt;This type of malware prevents users from accessing their files or systems until a payment is made to the cybercriminals. Detection relies on identifying typical ransomware behaviors such as rapid encryption of multiple files, modification of file extensions, and displaying ransom messages.&lt;/font&gt;&lt;/p&gt;" style="text;html=1;whiteSpace=wrap;overflow=hidden;rounded=0;" parent="WIyWlLk6GJQsqaUBKTNV-1" vertex="1">
          <mxGeometry x="42" y="30" width="750" height="90" as="geometry" />
        </mxCell>
        <mxCell id="eJGPHQveTNaPy0s2nLHc-67" value="Playbook réalisé par Augmented Security Force - licence&amp;nbsp;CC0 1.0 UNIVERSAL" style="text;html=1;align=center;verticalAlign=middle;whiteSpace=wrap;rounded=0;" parent="WIyWlLk6GJQsqaUBKTNV-1" vertex="1">
          <mxGeometry x="40" y="1110" width="750" height="30" as="geometry" />
        </mxCell>
      </root>
    </mxGraphModel>
  </diagram>
</mxfile>
